<?xml version="1.0" encoding="utf-8" standalone="no"?>
<!DOCTYPE svg PUBLIC "-//W3C//DTD SVG 1.1//EN"
  "http://www.w3.org/Graphics/SVG/1.1/DTD/svg11.dtd">
<svg xmlns:xlink="http://www.w3.org/1999/xlink" width="206.67786pt" height="201.775498pt" viewBox="0 0 206.67786 201.775498" xmlns="http://www.w3.org/2000/svg" version="1.1">
 <metadata>
  <rdf:RDF xmlns:dc="http://purl.org/dc/elements/1.1/" xmlns:cc="http://creativecommons.org/ns#" xmlns:rdf="http://www.w3.org/1999/02/22-rdf-syntax-ns#">
   <cc:Work>
    <dc:type rdf:resource="http://purl.org/dc/dcmitype/StillImage"/>
    <dc:date>2024-10-30T07:14:14.418969</dc:date>
    <dc:format>image/svg+xml</dc:format>
    <dc:creator>
     <cc:Agent>
      <dc:title>Matplotlib v3.8.0, https://matplotlib.org/</dc:title>
     </cc:Agent>
    </dc:creator>
   </cc:Work>
  </rdf:RDF>
 </metadata>
 <defs>
  <style type="text/css">*{stroke-linejoin: round; stroke-linecap: butt}</style>
 </defs>
 <g id="figure_1">
  <g id="patch_1">
   <path d="M 0 201.775498 
L 206.67786 201.775498 
L 206.67786 0 
L 0 0 
z
" style="fill: #ffffff"/>
  </g>
  <g id="axes_1">
   <g id="patch_2">
    <path d="M 36.361719 169.26378 
L 199.47786 169.26378 
L 199.47786 7.2 
L 36.361719 7.2 
z
" style="fill: #ffffff"/>
   </g>
   <g id="patch_3">
    <path d="M 43.776089 169.26378 
L 45.258963 169.26378 
L 45.258963 14.917323 
L 43.776089 14.917323 
z
" clip-path="url(#pafe375b011)" style="fill: #004488"/>
   </g>
   <g id="patch_4">
    <path d="M 45.258963 169.26378 
L 46.741837 169.26378 
L 46.741837 135.568426 
L 45.258963 135.568426 
z
" clip-path="url(#pafe375b011)" style="fill: #004488"/>
   </g>
   <g id="patch_5">
    <path d="M 46.741837 169.26378 
L 48.224711 169.26378 
L 48.224711 116.003382 
L 46.741837 116.003382 
z
" clip-path="url(#pafe375b011)" style="fill: #004488"/>
   </g>
   <g id="patch_6">
    <path d="M 48.224711 169.26378 
L 49.707585 169.26378 
L 49.707585 110.568648 
L 48.224711 110.568648 
z
" clip-path="url(#pafe375b011)" style="fill: #004488"/>
   </g>
   <g id="patch_7">
    <path d="M 49.707585 169.26378 
L 51.190459 169.26378 
L 51.190459 137.74232 
L 49.707585 137.74232 
z
" clip-path="url(#pafe375b011)" style="fill: #004488"/>
   </g>
   <g id="patch_8">
    <path d="M 51.190459 169.26378 
L 52.673333 169.26378 
L 52.673333 159.481258 
L 51.190459 159.481258 
z
" clip-path="url(#pafe375b011)" style="fill: #004488"/>
   </g>
   <g id="patch_9">
    <path d="M 52.673333 169.26378 
L 54.156207 169.26378 
L 54.156207 156.220417 
L 52.673333 156.220417 
z
" clip-path="url(#pafe375b011)" style="fill: #004488"/>
   </g>
   <g id="patch_10">
    <path d="M 54.156207 169.26378 
L 55.639081 169.26378 
L 55.639081 161.655151 
L 54.156207 161.655151 
z
" clip-path="url(#pafe375b011)" style="fill: #004488"/>
   </g>
   <g id="patch_11">
    <path d="M 55.639081 169.26378 
L 57.121955 169.26378 
L 57.121955 167.089886 
L 55.639081 167.089886 
z
" clip-path="url(#pafe375b011)" style="fill: #004488"/>
   </g>
   <g id="patch_12">
    <path d="M 57.121955 169.26378 
L 58.604829 169.26378 
L 58.604829 163.829045 
L 57.121955 163.829045 
z
" clip-path="url(#pafe375b011)" style="fill: #004488"/>
   </g>
   <g id="patch_13">
    <path d="M 58.604829 169.26378 
L 60.087703 169.26378 
L 60.087703 167.089886 
L 58.604829 167.089886 
z
" clip-path="url(#pafe375b011)" style="fill: #004488"/>
   </g>
   <g id="patch_14">
    <path d="M 60.087703 169.26378 
L 61.570577 169.26378 
L 61.570577 168.176833 
L 60.087703 168.176833 
z
" clip-path="url(#pafe375b011)" style="fill: #004488"/>
   </g>
   <g id="patch_15">
    <path d="M 61.570577 169.26378 
L 63.053451 169.26378 
L 63.053451 167.089886 
L 61.570577 167.089886 
z
" clip-path="url(#pafe375b011)" style="fill: #004488"/>
   </g>
   <g id="patch_16">
    <path d="M 63.053451 169.26378 
L 64.536325 169.26378 
L 64.536325 168.176833 
L 63.053451 168.176833 
z
" clip-path="url(#pafe375b011)" style="fill: #004488"/>
   </g>
   <g id="patch_17">
    <path d="M 64.536325 169.26378 
L 66.019199 169.26378 
L 66.019199 168.176833 
L 64.536325 168.176833 
z
" clip-path="url(#pafe375b011)" style="fill: #004488"/>
   </g>
   <g id="patch_18">
    <path d="M 66.019199 169.26378 
L 67.502073 169.26378 
L 67.502073 167.089886 
L 66.019199 167.089886 
z
" clip-path="url(#pafe375b011)" style="fill: #004488"/>
   </g>
   <g id="patch_19">
    <path d="M 67.502073 169.26378 
L 68.984947 169.26378 
L 68.984947 168.176833 
L 67.502073 168.176833 
z
" clip-path="url(#pafe375b011)" style="fill: #004488"/>
   </g>
   <g id="patch_20">
    <path d="M 68.984947 169.26378 
L 70.467821 169.26378 
L 70.467821 166.002939 
L 68.984947 166.002939 
z
" clip-path="url(#pafe375b011)" style="fill: #004488"/>
   </g>
   <g id="patch_21">
    <path d="M 70.467821 169.26378 
L 71.950695 169.26378 
L 71.950695 167.089886 
L 70.467821 167.089886 
z
" clip-path="url(#pafe375b011)" style="fill: #004488"/>
   </g>
   <g id="patch_22">
    <path d="M 71.950695 169.26378 
L 73.433569 169.26378 
L 73.433569 169.26378 
L 71.950695 169.26378 
z
" clip-path="url(#pafe375b011)" style="fill: #004488"/>
   </g>
   <g id="patch_23">
    <path d="M 73.433569 169.26378 
L 74.916443 169.26378 
L 74.916443 164.915992 
L 73.433569 164.915992 
z
" clip-path="url(#pafe375b011)" style="fill: #004488"/>
   </g>
   <g id="patch_24">
    <path d="M 74.916443 169.26378 
L 76.399317 169.26378 
L 76.399317 163.829045 
L 74.916443 163.829045 
z
" clip-path="url(#pafe375b011)" style="fill: #004488"/>
   </g>
   <g id="patch_25">
    <path d="M 76.399317 169.26378 
L 77.882191 169.26378 
L 77.882191 163.829045 
L 76.399317 163.829045 
z
" clip-path="url(#pafe375b011)" style="fill: #004488"/>
   </g>
   <g id="patch_26">
    <path d="M 77.882191 169.26378 
L 79.365065 169.26378 
L 79.365065 166.002939 
L 77.882191 166.002939 
z
" clip-path="url(#pafe375b011)" style="fill: #004488"/>
   </g>
   <g id="patch_27">
    <path d="M 79.365065 169.26378 
L 80.847939 169.26378 
L 80.847939 169.26378 
L 79.365065 169.26378 
z
" clip-path="url(#pafe375b011)" style="fill: #004488"/>
   </g>
   <g id="patch_28">
    <path d="M 80.847939 169.26378 
L 82.330813 169.26378 
L 82.330813 168.176833 
L 80.847939 168.176833 
z
" clip-path="url(#pafe375b011)" style="fill: #004488"/>
   </g>
   <g id="patch_29">
    <path d="M 82.330813 169.26378 
L 83.813687 169.26378 
L 83.813687 169.26378 
L 82.330813 169.26378 
z
" clip-path="url(#pafe375b011)" style="fill: #004488"/>
   </g>
   <g id="patch_30">
    <path d="M 83.813687 169.26378 
L 85.296561 169.26378 
L 85.296561 169.26378 
L 83.813687 169.26378 
z
" clip-path="url(#pafe375b011)" style="fill: #004488"/>
   </g>
   <g id="patch_31">
    <path d="M 85.296561 169.26378 
L 86.779435 169.26378 
L 86.779435 169.26378 
L 85.296561 169.26378 
z
" clip-path="url(#pafe375b011)" style="fill: #004488"/>
   </g>
   <g id="patch_32">
    <path d="M 86.779435 169.26378 
L 88.262309 169.26378 
L 88.262309 168.176833 
L 86.779435 168.176833 
z
" clip-path="url(#pafe375b011)" style="fill: #004488"/>
   </g>
   <g id="patch_33">
    <path d="M 88.262309 169.26378 
L 89.745183 169.26378 
L 89.745183 169.26378 
L 88.262309 169.26378 
z
" clip-path="url(#pafe375b011)" style="fill: #004488"/>
   </g>
   <g id="patch_34">
    <path d="M 89.745183 169.26378 
L 91.228057 169.26378 
L 91.228057 169.26378 
L 89.745183 169.26378 
z
" clip-path="url(#pafe375b011)" style="fill: #004488"/>
   </g>
   <g id="patch_35">
    <path d="M 91.228057 169.26378 
L 92.710931 169.26378 
L 92.710931 169.26378 
L 91.228057 169.26378 
z
" clip-path="url(#pafe375b011)" style="fill: #004488"/>
   </g>
   <g id="patch_36">
    <path d="M 92.710931 169.26378 
L 94.193805 169.26378 
L 94.193805 169.26378 
L 92.710931 169.26378 
z
" clip-path="url(#pafe375b011)" style="fill: #004488"/>
   </g>
   <g id="patch_37">
    <path d="M 94.193805 169.26378 
L 95.676679 169.26378 
L 95.676679 168.176833 
L 94.193805 168.176833 
z
" clip-path="url(#pafe375b011)" style="fill: #004488"/>
   </g>
   <g id="patch_38">
    <path d="M 95.676679 169.26378 
L 97.159553 169.26378 
L 97.159553 169.26378 
L 95.676679 169.26378 
z
" clip-path="url(#pafe375b011)" style="fill: #004488"/>
   </g>
   <g id="patch_39">
    <path d="M 97.159553 169.26378 
L 98.642427 169.26378 
L 98.642427 169.26378 
L 97.159553 169.26378 
z
" clip-path="url(#pafe375b011)" style="fill: #004488"/>
   </g>
   <g id="patch_40">
    <path d="M 98.642427 169.26378 
L 100.125301 169.26378 
L 100.125301 169.26378 
L 98.642427 169.26378 
z
" clip-path="url(#pafe375b011)" style="fill: #004488"/>
   </g>
   <g id="patch_41">
    <path d="M 100.125301 169.26378 
L 101.608175 169.26378 
L 101.608175 168.176833 
L 100.125301 168.176833 
z
" clip-path="url(#pafe375b011)" style="fill: #004488"/>
   </g>
   <g id="patch_42">
    <path d="M 101.608175 169.26378 
L 103.091049 169.26378 
L 103.091049 168.176833 
L 101.608175 168.176833 
z
" clip-path="url(#pafe375b011)" style="fill: #004488"/>
   </g>
   <g id="patch_43">
    <path d="M 103.091049 169.26378 
L 104.573923 169.26378 
L 104.573923 169.26378 
L 103.091049 169.26378 
z
" clip-path="url(#pafe375b011)" style="fill: #004488"/>
   </g>
   <g id="patch_44">
    <path d="M 104.573923 169.26378 
L 106.056797 169.26378 
L 106.056797 168.176833 
L 104.573923 168.176833 
z
" clip-path="url(#pafe375b011)" style="fill: #004488"/>
   </g>
   <g id="patch_45">
    <path d="M 106.056797 169.26378 
L 107.539672 169.26378 
L 107.539672 169.26378 
L 106.056797 169.26378 
z
" clip-path="url(#pafe375b011)" style="fill: #004488"/>
   </g>
   <g id="patch_46">
    <path d="M 107.539672 169.26378 
L 109.022546 169.26378 
L 109.022546 169.26378 
L 107.539672 169.26378 
z
" clip-path="url(#pafe375b011)" style="fill: #004488"/>
   </g>
   <g id="patch_47">
    <path d="M 109.022546 169.26378 
L 110.50542 169.26378 
L 110.50542 169.26378 
L 109.022546 169.26378 
z
" clip-path="url(#pafe375b011)" style="fill: #004488"/>
   </g>
   <g id="patch_48">
    <path d="M 110.50542 169.26378 
L 111.988294 169.26378 
L 111.988294 169.26378 
L 110.50542 169.26378 
z
" clip-path="url(#pafe375b011)" style="fill: #004488"/>
   </g>
   <g id="patch_49">
    <path d="M 111.988294 169.26378 
L 113.471168 169.26378 
L 113.471168 169.26378 
L 111.988294 169.26378 
z
" clip-path="url(#pafe375b011)" style="fill: #004488"/>
   </g>
   <g id="patch_50">
    <path d="M 113.471168 169.26378 
L 114.954042 169.26378 
L 114.954042 169.26378 
L 113.471168 169.26378 
z
" clip-path="url(#pafe375b011)" style="fill: #004488"/>
   </g>
   <g id="patch_51">
    <path d="M 114.954042 169.26378 
L 116.436916 169.26378 
L 116.436916 168.176833 
L 114.954042 168.176833 
z
" clip-path="url(#pafe375b011)" style="fill: #004488"/>
   </g>
   <g id="patch_52">
    <path d="M 116.436916 169.26378 
L 117.91979 169.26378 
L 117.91979 169.26378 
L 116.436916 169.26378 
z
" clip-path="url(#pafe375b011)" style="fill: #004488"/>
   </g>
   <g id="patch_53">
    <path d="M 117.91979 169.26378 
L 119.402664 169.26378 
L 119.402664 169.26378 
L 117.91979 169.26378 
z
" clip-path="url(#pafe375b011)" style="fill: #004488"/>
   </g>
   <g id="patch_54">
    <path d="M 119.402664 169.26378 
L 120.885538 169.26378 
L 120.885538 168.176833 
L 119.402664 168.176833 
z
" clip-path="url(#pafe375b011)" style="fill: #004488"/>
   </g>
   <g id="patch_55">
    <path d="M 120.885538 169.26378 
L 122.368412 169.26378 
L 122.368412 169.26378 
L 120.885538 169.26378 
z
" clip-path="url(#pafe375b011)" style="fill: #004488"/>
   </g>
   <g id="patch_56">
    <path d="M 122.368412 169.26378 
L 123.851286 169.26378 
L 123.851286 168.176833 
L 122.368412 168.176833 
z
" clip-path="url(#pafe375b011)" style="fill: #004488"/>
   </g>
   <g id="patch_57">
    <path d="M 123.851286 169.26378 
L 125.33416 169.26378 
L 125.33416 169.26378 
L 123.851286 169.26378 
z
" clip-path="url(#pafe375b011)" style="fill: #004488"/>
   </g>
   <g id="patch_58">
    <path d="M 125.33416 169.26378 
L 126.817034 169.26378 
L 126.817034 169.26378 
L 125.33416 169.26378 
z
" clip-path="url(#pafe375b011)" style="fill: #004488"/>
   </g>
   <g id="patch_59">
    <path d="M 126.817034 169.26378 
L 128.299908 169.26378 
L 128.299908 169.26378 
L 126.817034 169.26378 
z
" clip-path="url(#pafe375b011)" style="fill: #004488"/>
   </g>
   <g id="patch_60">
    <path d="M 128.299908 169.26378 
L 129.782782 169.26378 
L 129.782782 169.26378 
L 128.299908 169.26378 
z
" clip-path="url(#pafe375b011)" style="fill: #004488"/>
   </g>
   <g id="patch_61">
    <path d="M 129.782782 169.26378 
L 131.265656 169.26378 
L 131.265656 169.26378 
L 129.782782 169.26378 
z
" clip-path="url(#pafe375b011)" style="fill: #004488"/>
   </g>
   <g id="patch_62">
    <path d="M 131.265656 169.26378 
L 132.74853 169.26378 
L 132.74853 169.26378 
L 131.265656 169.26378 
z
" clip-path="url(#pafe375b011)" style="fill: #004488"/>
   </g>
   <g id="patch_63">
    <path d="M 132.74853 169.26378 
L 134.231404 169.26378 
L 134.231404 169.26378 
L 132.74853 169.26378 
z
" clip-path="url(#pafe375b011)" style="fill: #004488"/>
   </g>
   <g id="patch_64">
    <path d="M 134.231404 169.26378 
L 135.714278 169.26378 
L 135.714278 169.26378 
L 134.231404 169.26378 
z
" clip-path="url(#pafe375b011)" style="fill: #004488"/>
   </g>
   <g id="patch_65">
    <path d="M 135.714278 169.26378 
L 137.197152 169.26378 
L 137.197152 169.26378 
L 135.714278 169.26378 
z
" clip-path="url(#pafe375b011)" style="fill: #004488"/>
   </g>
   <g id="patch_66">
    <path d="M 137.197152 169.26378 
L 138.680026 169.26378 
L 138.680026 169.26378 
L 137.197152 169.26378 
z
" clip-path="url(#pafe375b011)" style="fill: #004488"/>
   </g>
   <g id="patch_67">
    <path d="M 138.680026 169.26378 
L 140.1629 169.26378 
L 140.1629 169.26378 
L 138.680026 169.26378 
z
" clip-path="url(#pafe375b011)" style="fill: #004488"/>
   </g>
   <g id="patch_68">
    <path d="M 140.1629 169.26378 
L 141.645774 169.26378 
L 141.645774 169.26378 
L 140.1629 169.26378 
z
" clip-path="url(#pafe375b011)" style="fill: #004488"/>
   </g>
   <g id="patch_69">
    <path d="M 141.645774 169.26378 
L 143.128648 169.26378 
L 143.128648 169.26378 
L 141.645774 169.26378 
z
" clip-path="url(#pafe375b011)" style="fill: #004488"/>
   </g>
   <g id="patch_70">
    <path d="M 143.128648 169.26378 
L 144.611522 169.26378 
L 144.611522 169.26378 
L 143.128648 169.26378 
z
" clip-path="url(#pafe375b011)" style="fill: #004488"/>
   </g>
   <g id="patch_71">
    <path d="M 144.611522 169.26378 
L 146.094396 169.26378 
L 146.094396 169.26378 
L 144.611522 169.26378 
z
" clip-path="url(#pafe375b011)" style="fill: #004488"/>
   </g>
   <g id="patch_72">
    <path d="M 146.094396 169.26378 
L 147.57727 169.26378 
L 147.57727 169.26378 
L 146.094396 169.26378 
z
" clip-path="url(#pafe375b011)" style="fill: #004488"/>
   </g>
   <g id="patch_73">
    <path d="M 147.57727 169.26378 
L 149.060144 169.26378 
L 149.060144 169.26378 
L 147.57727 169.26378 
z
" clip-path="url(#pafe375b011)" style="fill: #004488"/>
   </g>
   <g id="patch_74">
    <path d="M 149.060144 169.26378 
L 150.543018 169.26378 
L 150.543018 169.26378 
L 149.060144 169.26378 
z
" clip-path="url(#pafe375b011)" style="fill: #004488"/>
   </g>
   <g id="patch_75">
    <path d="M 150.543018 169.26378 
L 152.025892 169.26378 
L 152.025892 169.26378 
L 150.543018 169.26378 
z
" clip-path="url(#pafe375b011)" style="fill: #004488"/>
   </g>
   <g id="patch_76">
    <path d="M 152.025892 169.26378 
L 153.508766 169.26378 
L 153.508766 169.26378 
L 152.025892 169.26378 
z
" clip-path="url(#pafe375b011)" style="fill: #004488"/>
   </g>
   <g id="patch_77">
    <path d="M 153.508766 169.26378 
L 154.99164 169.26378 
L 154.99164 169.26378 
L 153.508766 169.26378 
z
" clip-path="url(#pafe375b011)" style="fill: #004488"/>
   </g>
   <g id="patch_78">
    <path d="M 154.99164 169.26378 
L 156.474514 169.26378 
L 156.474514 168.176833 
L 154.99164 168.176833 
z
" clip-path="url(#pafe375b011)" style="fill: #004488"/>
   </g>
   <g id="patch_79">
    <path d="M 156.474514 169.26378 
L 157.957388 169.26378 
L 157.957388 169.26378 
L 156.474514 169.26378 
z
" clip-path="url(#pafe375b011)" style="fill: #004488"/>
   </g>
   <g id="patch_80">
    <path d="M 157.957388 169.26378 
L 159.440262 169.26378 
L 159.440262 169.26378 
L 157.957388 169.26378 
z
" clip-path="url(#pafe375b011)" style="fill: #004488"/>
   </g>
   <g id="patch_81">
    <path d="M 159.440262 169.26378 
L 160.923136 169.26378 
L 160.923136 168.176833 
L 159.440262 168.176833 
z
" clip-path="url(#pafe375b011)" style="fill: #004488"/>
   </g>
   <g id="patch_82">
    <path d="M 160.923136 169.26378 
L 162.40601 169.26378 
L 162.40601 169.26378 
L 160.923136 169.26378 
z
" clip-path="url(#pafe375b011)" style="fill: #004488"/>
   </g>
   <g id="patch_83">
    <path d="M 162.40601 169.26378 
L 163.888884 169.26378 
L 163.888884 169.26378 
L 162.40601 169.26378 
z
" clip-path="url(#pafe375b011)" style="fill: #004488"/>
   </g>
   <g id="patch_84">
    <path d="M 163.888884 169.26378 
L 165.371758 169.26378 
L 165.371758 169.26378 
L 163.888884 169.26378 
z
" clip-path="url(#pafe375b011)" style="fill: #004488"/>
   </g>
   <g id="patch_85">
    <path d="M 165.371758 169.26378 
L 166.854632 169.26378 
L 166.854632 169.26378 
L 165.371758 169.26378 
z
" clip-path="url(#pafe375b011)" style="fill: #004488"/>
   </g>
   <g id="patch_86">
    <path d="M 166.854632 169.26378 
L 168.337506 169.26378 
L 168.337506 169.26378 
L 166.854632 169.26378 
z
" clip-path="url(#pafe375b011)" style="fill: #004488"/>
   </g>
   <g id="patch_87">
    <path d="M 168.337506 169.26378 
L 169.82038 169.26378 
L 169.82038 169.26378 
L 168.337506 169.26378 
z
" clip-path="url(#pafe375b011)" style="fill: #004488"/>
   </g>
   <g id="patch_88">
    <path d="M 169.82038 169.26378 
L 171.303254 169.26378 
L 171.303254 169.26378 
L 169.82038 169.26378 
z
" clip-path="url(#pafe375b011)" style="fill: #004488"/>
   </g>
   <g id="patch_89">
    <path d="M 171.303254 169.26378 
L 172.786128 169.26378 
L 172.786128 169.26378 
L 171.303254 169.26378 
z
" clip-path="url(#pafe375b011)" style="fill: #004488"/>
   </g>
   <g id="patch_90">
    <path d="M 172.786128 169.26378 
L 174.269002 169.26378 
L 174.269002 169.26378 
L 172.786128 169.26378 
z
" clip-path="url(#pafe375b011)" style="fill: #004488"/>
   </g>
   <g id="patch_91">
    <path d="M 174.269002 169.26378 
L 175.751876 169.26378 
L 175.751876 169.26378 
L 174.269002 169.26378 
z
" clip-path="url(#pafe375b011)" style="fill: #004488"/>
   </g>
   <g id="patch_92">
    <path d="M 175.751876 169.26378 
L 177.23475 169.26378 
L 177.23475 169.26378 
L 175.751876 169.26378 
z
" clip-path="url(#pafe375b011)" style="fill: #004488"/>
   </g>
   <g id="patch_93">
    <path d="M 177.23475 169.26378 
L 178.717624 169.26378 
L 178.717624 169.26378 
L 177.23475 169.26378 
z
" clip-path="url(#pafe375b011)" style="fill: #004488"/>
   </g>
   <g id="patch_94">
    <path d="M 178.717624 169.26378 
L 180.200498 169.26378 
L 180.200498 169.26378 
L 178.717624 169.26378 
z
" clip-path="url(#pafe375b011)" style="fill: #004488"/>
   </g>
   <g id="patch_95">
    <path d="M 180.200498 169.26378 
L 181.683372 169.26378 
L 181.683372 169.26378 
L 180.200498 169.26378 
z
" clip-path="url(#pafe375b011)" style="fill: #004488"/>
   </g>
   <g id="patch_96">
    <path d="M 181.683372 169.26378 
L 183.166246 169.26378 
L 183.166246 169.26378 
L 181.683372 169.26378 
z
" clip-path="url(#pafe375b011)" style="fill: #004488"/>
   </g>
   <g id="patch_97">
    <path d="M 183.166246 169.26378 
L 184.64912 169.26378 
L 184.64912 169.26378 
L 183.166246 169.26378 
z
" clip-path="url(#pafe375b011)" style="fill: #004488"/>
   </g>
   <g id="patch_98">
    <path d="M 184.64912 169.26378 
L 186.131994 169.26378 
L 186.131994 169.26378 
L 184.64912 169.26378 
z
" clip-path="url(#pafe375b011)" style="fill: #004488"/>
   </g>
   <g id="patch_99">
    <path d="M 186.131994 169.26378 
L 187.614868 169.26378 
L 187.614868 169.26378 
L 186.131994 169.26378 
z
" clip-path="url(#pafe375b011)" style="fill: #004488"/>
   </g>
   <g id="patch_100">
    <path d="M 187.614868 169.26378 
L 189.097742 169.26378 
L 189.097742 169.26378 
L 187.614868 169.26378 
z
" clip-path="url(#pafe375b011)" style="fill: #004488"/>
   </g>
   <g id="patch_101">
    <path d="M 189.097742 169.26378 
L 190.580616 169.26378 
L 190.580616 169.26378 
L 189.097742 169.26378 
z
" clip-path="url(#pafe375b011)" style="fill: #004488"/>
   </g>
   <g id="patch_102">
    <path d="M 190.580616 169.26378 
L 192.06349 169.26378 
L 192.06349 168.176833 
L 190.580616 168.176833 
z
" clip-path="url(#pafe375b011)" style="fill: #004488"/>
   </g>
   <g id="matplotlib.axis_1">
    <g id="xtick_1">
     <g id="line2d_1">
      <defs>
       <path id="ma6b791740b" d="M 0 0 
L 0 3.5 
" style="stroke: #000000; stroke-width: 0.8"/>
      </defs>
      <g>
       <use xlink:href="#ma6b791740b" x="43.767008" y="169.26378" style="stroke: #000000; stroke-width: 0.8"/>
      </g>
     </g>
     <g id="text_1">
      <text style="font: 7px 'Arial'; text-anchor: middle" x="43.767008" y="181.274248" transform="rotate(-0 43.767008 181.274248)">0.00</text>
     </g>
    </g>
    <g id="xtick_2">
     <g id="line2d_2">
      <g>
       <use xlink:href="#ma6b791740b" x="83.216509" y="169.26378" style="stroke: #000000; stroke-width: 0.8"/>
      </g>
     </g>
     <g id="text_2">
      <text style="font: 7px 'Arial'; text-anchor: middle" x="83.216509" y="181.274248" transform="rotate(-0 83.216509 181.274248)">0.05</text>
     </g>
    </g>
    <g id="xtick_3">
     <g id="line2d_3">
      <g>
       <use xlink:href="#ma6b791740b" x="122.66601" y="169.26378" style="stroke: #000000; stroke-width: 0.8"/>
      </g>
     </g>
     <g id="text_3">
      <text style="font: 7px 'Arial'; text-anchor: middle" x="122.66601" y="181.274248" transform="rotate(-0 122.66601 181.274248)">0.10</text>
     </g>
    </g>
    <g id="xtick_4">
     <g id="line2d_4">
      <g>
       <use xlink:href="#ma6b791740b" x="162.115511" y="169.26378" style="stroke: #000000; stroke-width: 0.8"/>
      </g>
     </g>
     <g id="text_4">
      <text style="font: 7px 'Arial'; text-anchor: middle" x="162.115511" y="181.274248" transform="rotate(-0 162.115511 181.274248)">0.15</text>
     </g>
    </g>
    <g id="text_5">
     <!-- Area total ($\degree^{2}$) -->
     <g transform="translate(96.18479 193.035498)">
      <text>
       <tspan style="font: 7px 'Arial'" x="0 4.668945 7 10.893066 14.786133 16.730957 18.675781 22.568848 24.513672 28.406738 29.961914 31.906738 41.113721" y="-0.6781249999999996">Area total ()</tspan>
       <tspan style="font: 7px 'DejaVu Sans'" x="34.237793" y="-0.6781249999999996">°</tspan>
       <tspan style="font: 4.9px 'DejaVu Sans'" x="37.804785" y="-3.3578124999999996">2</tspan>
      </text>
     </g>
    </g>
   </g>
   <g id="matplotlib.axis_2">
    <g id="ytick_1">
     <g id="line2d_5">
      <defs>
       <path id="mba99539acf" d="M 0 0 
L -3.5 0 
" style="stroke: #000000; stroke-width: 0.8"/>
      </defs>
      <g>
       <use xlink:href="#mba99539acf" x="36.361719" y="169.26378" style="stroke: #000000; stroke-width: 0.8"/>
      </g>
     </g>
     <g id="text_6">
      <text style="font: 7px 'Arial'; text-anchor: end" x="29.361719" y="171.769014" transform="rotate(-0 29.361719 171.769014)">0</text>
     </g>
    </g>
    <g id="ytick_2">
     <g id="line2d_6">
      <g>
       <use xlink:href="#mba99539acf" x="36.361719" y="147.524842" style="stroke: #000000; stroke-width: 0.8"/>
      </g>
     </g>
     <g id="text_7">
      <text style="font: 7px 'Arial'; text-anchor: end" x="29.361719" y="150.030076" transform="rotate(-0 29.361719 150.030076)">20</text>
     </g>
    </g>
    <g id="ytick_3">
     <g id="line2d_7">
      <g>
       <use xlink:href="#mba99539acf" x="36.361719" y="125.785904" style="stroke: #000000; stroke-width: 0.8"/>
      </g>
     </g>
     <g id="text_8">
      <text style="font: 7px 'Arial'; text-anchor: end" x="29.361719" y="128.291139" transform="rotate(-0 29.361719 128.291139)">40</text>
     </g>
    </g>
    <g id="ytick_4">
     <g id="line2d_8">
      <g>
       <use xlink:href="#mba99539acf" x="36.361719" y="104.046967" style="stroke: #000000; stroke-width: 0.8"/>
      </g>
     </g>
     <g id="text_9">
      <text style="font: 7px 'Arial'; text-anchor: end" x="29.361719" y="106.552201" transform="rotate(-0 29.361719 106.552201)">60</text>
     </g>
    </g>
    <g id="ytick_5">
     <g id="line2d_9">
      <g>
       <use xlink:href="#mba99539acf" x="36.361719" y="82.308029" style="stroke: #000000; stroke-width: 0.8"/>
      </g>
     </g>
     <g id="text_10">
      <text style="font: 7px 'Arial'; text-anchor: end" x="29.361719" y="84.813264" transform="rotate(-0 29.361719 84.813264)">80</text>
     </g>
    </g>
    <g id="ytick_6">
     <g id="line2d_10">
      <g>
       <use xlink:href="#mba99539acf" x="36.361719" y="60.569092" style="stroke: #000000; stroke-width: 0.8"/>
      </g>
     </g>
     <g id="text_11">
      <text style="font: 7px 'Arial'; text-anchor: end" x="29.361719" y="63.074326" transform="rotate(-0 29.361719 63.074326)">100</text>
     </g>
    </g>
    <g id="ytick_7">
     <g id="line2d_11">
      <g>
       <use xlink:href="#mba99539acf" x="36.361719" y="38.830154" style="stroke: #000000; stroke-width: 0.8"/>
      </g>
     </g>
     <g id="text_12">
      <text style="font: 7px 'Arial'; text-anchor: end" x="29.361719" y="41.335389" transform="rotate(-0 29.361719 41.335389)">120</text>
     </g>
    </g>
    <g id="ytick_8">
     <g id="line2d_12">
      <g>
       <use xlink:href="#mba99539acf" x="36.361719" y="17.091217" style="stroke: #000000; stroke-width: 0.8"/>
      </g>
     </g>
     <g id="text_13">
      <text style="font: 7px 'Arial'; text-anchor: end" x="29.361719" y="19.596451" transform="rotate(-0 29.361719 19.596451)">140</text>
     </g>
    </g>
    <g id="text_14">
     <text style="font: 7px 'Arial'; text-anchor: middle" x="12.210469" y="88.23189" transform="rotate(-90 12.210469 88.23189)">Frequency</text>
    </g>
   </g>
   <g id="patch_103">
    <path d="M 36.361719 169.26378 
L 36.361719 7.2 
" style="fill: none; stroke: #000000; stroke-width: 0.8; stroke-linejoin: miter; stroke-linecap: square"/>
   </g>
   <g id="patch_104">
    <path d="M 199.47786 169.26378 
L 199.47786 7.2 
" style="fill: none; stroke: #000000; stroke-width: 0.8; stroke-linejoin: miter; stroke-linecap: square"/>
   </g>
   <g id="patch_105">
    <path d="M 36.361719 169.26378 
L 199.47786 169.26378 
" style="fill: none; stroke: #000000; stroke-width: 0.8; stroke-linejoin: miter; stroke-linecap: square"/>
   </g>
   <g id="patch_106">
    <path d="M 36.361719 7.2 
L 199.47786 7.2 
" style="fill: none; stroke: #000000; stroke-width: 0.8; stroke-linejoin: miter; stroke-linecap: square"/>
   </g>
  </g>
 </g>
 <defs>
  <clipPath id="pafe375b011">
   <rect x="36.361719" y="7.2" width="163.116142" height="162.06378"/>
  </clipPath>
 </defs>
</svg>
