<?xml version="1.0" encoding="utf-8" standalone="no"?>
<!DOCTYPE svg PUBLIC "-//W3C//DTD SVG 1.1//EN"
  "http://www.w3.org/Graphics/SVG/1.1/DTD/svg11.dtd">
<svg xmlns:xlink="http://www.w3.org/1999/xlink" width="214.463173pt" height="200.725498pt" viewBox="0 0 214.463173 200.725498" xmlns="http://www.w3.org/2000/svg" version="1.1">
 <metadata>
  <rdf:RDF xmlns:dc="http://purl.org/dc/elements/1.1/" xmlns:cc="http://creativecommons.org/ns#" xmlns:rdf="http://www.w3.org/1999/02/22-rdf-syntax-ns#">
   <cc:Work>
    <dc:type rdf:resource="http://purl.org/dc/dcmitype/StillImage"/>
    <dc:date>2024-10-30T07:14:00.301423</dc:date>
    <dc:format>image/svg+xml</dc:format>
    <dc:creator>
     <cc:Agent>
      <dc:title>Matplotlib v3.8.0, https://matplotlib.org/</dc:title>
     </cc:Agent>
    </dc:creator>
   </cc:Work>
  </rdf:RDF>
 </metadata>
 <defs>
  <style type="text/css">*{stroke-linejoin: round; stroke-linecap: butt}</style>
 </defs>
 <g id="figure_1">
  <g id="patch_1">
   <path d="M 0 200.725498 
L 214.463173 200.725498 
L 214.463173 0 
L 0 0 
z
" style="fill: #ffffff"/>
  </g>
  <g id="axes_1">
   <g id="patch_2">
    <path d="M 44.147031 169.26378 
L 207.263173 169.26378 
L 207.263173 7.2 
L 44.147031 7.2 
z
" style="fill: #ffffff"/>
   </g>
   <g id="patch_3">
    <path d="M 51.561401 169.26378 
L 53.044275 169.26378 
L 53.044275 143.721632 
L 51.561401 143.721632 
z
" clip-path="url(#p3c3f5b16a7)" style="fill: #004488"/>
   </g>
   <g id="patch_4">
    <path d="M 53.044275 169.26378 
L 54.527149 169.26378 
L 54.527149 155.131477 
L 53.044275 155.131477 
z
" clip-path="url(#p3c3f5b16a7)" style="fill: #004488"/>
   </g>
   <g id="patch_5">
    <path d="M 54.527149 169.26378 
L 56.010023 169.26378 
L 56.010023 129.382851 
L 54.527149 129.382851 
z
" clip-path="url(#p3c3f5b16a7)" style="fill: #004488"/>
   </g>
   <g id="patch_6">
    <path d="M 56.010023 169.26378 
L 57.492897 169.26378 
L 57.492897 127.906913 
L 56.010023 127.906913 
z
" clip-path="url(#p3c3f5b16a7)" style="fill: #004488"/>
   </g>
   <g id="patch_7">
    <path d="M 57.492897 169.26378 
L 58.975771 169.26378 
L 58.975771 106.547866 
L 57.492897 106.547866 
z
" clip-path="url(#p3c3f5b16a7)" style="fill: #004488"/>
   </g>
   <g id="patch_8">
    <path d="M 58.975771 169.26378 
L 60.458645 169.26378 
L 60.458645 169.26378 
L 58.975771 169.26378 
z
" clip-path="url(#p3c3f5b16a7)" style="fill: #004488"/>
   </g>
   <g id="patch_9">
    <path d="M 60.458645 169.26378 
L 61.941519 169.26378 
L 61.941519 100.078208 
L 60.458645 100.078208 
z
" clip-path="url(#p3c3f5b16a7)" style="fill: #004488"/>
   </g>
   <g id="patch_10">
    <path d="M 61.941519 169.26378 
L 63.424393 169.26378 
L 63.424393 70.49826 
L 61.941519 70.49826 
z
" clip-path="url(#p3c3f5b16a7)" style="fill: #004488"/>
   </g>
   <g id="patch_11">
    <path d="M 63.424393 169.26378 
L 64.907267 169.26378 
L 64.907267 84.424083 
L 63.424393 84.424083 
z
" clip-path="url(#p3c3f5b16a7)" style="fill: #004488"/>
   </g>
   <g id="patch_12">
    <path d="M 64.907267 169.26378 
L 66.390141 169.26378 
L 66.390141 14.917323 
L 64.907267 14.917323 
z
" clip-path="url(#p3c3f5b16a7)" style="fill: #004488"/>
   </g>
   <g id="patch_13">
    <path d="M 66.390141 169.26378 
L 67.873016 169.26378 
L 67.873016 58.438389 
L 66.390141 58.438389 
z
" clip-path="url(#p3c3f5b16a7)" style="fill: #004488"/>
   </g>
   <g id="patch_14">
    <path d="M 67.873016 169.26378 
L 69.35589 169.26378 
L 69.35589 169.26378 
L 67.873016 169.26378 
z
" clip-path="url(#p3c3f5b16a7)" style="fill: #004488"/>
   </g>
   <g id="patch_15">
    <path d="M 69.35589 169.26378 
L 70.838764 169.26378 
L 70.838764 68.861727 
L 69.35589 68.861727 
z
" clip-path="url(#p3c3f5b16a7)" style="fill: #004488"/>
   </g>
   <g id="patch_16">
    <path d="M 70.838764 169.26378 
L 72.321638 169.26378 
L 72.321638 104.781328 
L 70.838764 104.781328 
z
" clip-path="url(#p3c3f5b16a7)" style="fill: #004488"/>
   </g>
   <g id="patch_17">
    <path d="M 72.321638 169.26378 
L 73.804512 169.26378 
L 73.804512 97.332809 
L 72.321638 97.332809 
z
" clip-path="url(#p3c3f5b16a7)" style="fill: #004488"/>
   </g>
   <g id="patch_18">
    <path d="M 73.804512 169.26378 
L 75.287386 169.26378 
L 75.287386 118.493026 
L 73.804512 118.493026 
z
" clip-path="url(#p3c3f5b16a7)" style="fill: #004488"/>
   </g>
   <g id="patch_19">
    <path d="M 75.287386 169.26378 
L 76.77026 169.26378 
L 76.77026 111.90101 
L 75.287386 111.90101 
z
" clip-path="url(#p3c3f5b16a7)" style="fill: #004488"/>
   </g>
   <g id="patch_20">
    <path d="M 76.77026 169.26378 
L 78.253134 169.26378 
L 78.253134 169.26378 
L 76.77026 169.26378 
z
" clip-path="url(#p3c3f5b16a7)" style="fill: #004488"/>
   </g>
   <g id="patch_21">
    <path d="M 78.253134 169.26378 
L 79.736008 169.26378 
L 79.736008 126.094491 
L 78.253134 126.094491 
z
" clip-path="url(#p3c3f5b16a7)" style="fill: #004488"/>
   </g>
   <g id="patch_22">
    <path d="M 79.736008 169.26378 
L 81.218882 169.26378 
L 81.218882 119.426002 
L 79.736008 119.426002 
z
" clip-path="url(#p3c3f5b16a7)" style="fill: #004488"/>
   </g>
   <g id="patch_23">
    <path d="M 81.218882 169.26378 
L 82.701756 169.26378 
L 82.701756 130.300533 
L 81.218882 130.300533 
z
" clip-path="url(#p3c3f5b16a7)" style="fill: #004488"/>
   </g>
   <g id="patch_24">
    <path d="M 82.701756 169.26378 
L 84.18463 169.26378 
L 84.18463 122.86731 
L 82.701756 122.86731 
z
" clip-path="url(#p3c3f5b16a7)" style="fill: #004488"/>
   </g>
   <g id="patch_25">
    <path d="M 84.18463 169.26378 
L 85.667504 169.26378 
L 85.667504 132.418849 
L 84.18463 132.418849 
z
" clip-path="url(#p3c3f5b16a7)" style="fill: #004488"/>
   </g>
   <g id="patch_26">
    <path d="M 85.667504 169.26378 
L 87.150378 169.26378 
L 87.150378 169.26378 
L 85.667504 169.26378 
z
" clip-path="url(#p3c3f5b16a7)" style="fill: #004488"/>
   </g>
   <g id="patch_27">
    <path d="M 87.150378 169.26378 
L 88.633252 169.26378 
L 88.633252 127.103941 
L 87.150378 127.103941 
z
" clip-path="url(#p3c3f5b16a7)" style="fill: #004488"/>
   </g>
   <g id="patch_28">
    <path d="M 88.633252 169.26378 
L 90.116126 169.26378 
L 90.116126 135.691915 
L 88.633252 135.691915 
z
" clip-path="url(#p3c3f5b16a7)" style="fill: #004488"/>
   </g>
   <g id="patch_29">
    <path d="M 90.116126 169.26378 
L 91.599 169.26378 
L 91.599 129.681098 
L 90.116126 129.681098 
z
" clip-path="url(#p3c3f5b16a7)" style="fill: #004488"/>
   </g>
   <g id="patch_30">
    <path d="M 91.599 169.26378 
L 93.081874 169.26378 
L 93.081874 135.890746 
L 91.599 135.890746 
z
" clip-path="url(#p3c3f5b16a7)" style="fill: #004488"/>
   </g>
   <g id="patch_31">
    <path d="M 93.081874 169.26378 
L 94.564748 169.26378 
L 94.564748 128.220454 
L 93.081874 128.220454 
z
" clip-path="url(#p3c3f5b16a7)" style="fill: #004488"/>
   </g>
   <g id="patch_32">
    <path d="M 94.564748 169.26378 
L 96.047622 169.26378 
L 96.047622 169.26378 
L 94.564748 169.26378 
z
" clip-path="url(#p3c3f5b16a7)" style="fill: #004488"/>
   </g>
   <g id="patch_33">
    <path d="M 96.047622 169.26378 
L 97.530496 169.26378 
L 97.530496 137.664931 
L 96.047622 137.664931 
z
" clip-path="url(#p3c3f5b16a7)" style="fill: #004488"/>
   </g>
   <g id="patch_34">
    <path d="M 97.530496 169.26378 
L 99.01337 169.26378 
L 99.01337 130.422891 
L 97.530496 130.422891 
z
" clip-path="url(#p3c3f5b16a7)" style="fill: #004488"/>
   </g>
   <g id="patch_35">
    <path d="M 99.01337 169.26378 
L 100.496244 169.26378 
L 100.496244 138.292014 
L 99.01337 138.292014 
z
" clip-path="url(#p3c3f5b16a7)" style="fill: #004488"/>
   </g>
   <g id="patch_36">
    <path d="M 100.496244 169.26378 
L 101.979118 169.26378 
L 101.979118 131.585288 
L 100.496244 131.585288 
z
" clip-path="url(#p3c3f5b16a7)" style="fill: #004488"/>
   </g>
   <g id="patch_37">
    <path d="M 101.979118 169.26378 
L 103.461992 169.26378 
L 103.461992 139.462058 
L 101.979118 139.462058 
z
" clip-path="url(#p3c3f5b16a7)" style="fill: #004488"/>
   </g>
   <g id="patch_38">
    <path d="M 103.461992 169.26378 
L 104.944866 169.26378 
L 104.944866 169.26378 
L 103.461992 169.26378 
z
" clip-path="url(#p3c3f5b16a7)" style="fill: #004488"/>
   </g>
   <g id="patch_39">
    <path d="M 104.944866 169.26378 
L 106.42774 169.26378 
L 106.42774 134.055382 
L 104.944866 134.055382 
z
" clip-path="url(#p3c3f5b16a7)" style="fill: #004488"/>
   </g>
   <g id="patch_40">
    <path d="M 106.42774 169.26378 
L 107.910614 169.26378 
L 107.910614 140.762108 
L 106.42774 140.762108 
z
" clip-path="url(#p3c3f5b16a7)" style="fill: #004488"/>
   </g>
   <g id="patch_41">
    <path d="M 107.910614 169.26378 
L 109.393488 169.26378 
L 109.393488 134.26186 
L 107.910614 134.26186 
z
" clip-path="url(#p3c3f5b16a7)" style="fill: #004488"/>
   </g>
   <g id="patch_42">
    <path d="M 109.393488 169.26378 
L 110.876362 169.26378 
L 110.876362 142.459819 
L 109.393488 142.459819 
z
" clip-path="url(#p3c3f5b16a7)" style="fill: #004488"/>
   </g>
   <g id="patch_43">
    <path d="M 110.876362 169.26378 
L 112.359236 169.26378 
L 112.359236 136.403118 
L 110.876362 136.403118 
z
" clip-path="url(#p3c3f5b16a7)" style="fill: #004488"/>
   </g>
   <g id="patch_44">
    <path d="M 112.359236 169.26378 
L 113.84211 169.26378 
L 113.84211 169.26378 
L 112.359236 169.26378 
z
" clip-path="url(#p3c3f5b16a7)" style="fill: #004488"/>
   </g>
   <g id="patch_45">
    <path d="M 113.84211 169.26378 
L 115.324984 169.26378 
L 115.324984 143.499859 
L 113.84211 143.499859 
z
" clip-path="url(#p3c3f5b16a7)" style="fill: #004488"/>
   </g>
   <g id="patch_46">
    <path d="M 115.324984 169.26378 
L 116.807858 169.26378 
L 116.807858 137.412569 
L 115.324984 137.412569 
z
" clip-path="url(#p3c3f5b16a7)" style="fill: #004488"/>
   </g>
   <g id="patch_47">
    <path d="M 116.807858 169.26378 
L 118.290732 169.26378 
L 118.290732 145.419344 
L 116.807858 145.419344 
z
" clip-path="url(#p3c3f5b16a7)" style="fill: #004488"/>
   </g>
   <g id="patch_48">
    <path d="M 118.290732 169.26378 
L 119.773606 169.26378 
L 119.773606 139.59971 
L 118.290732 139.59971 
z
" clip-path="url(#p3c3f5b16a7)" style="fill: #004488"/>
   </g>
   <g id="patch_49">
    <path d="M 119.773606 169.26378 
L 121.25648 169.26378 
L 121.25648 145.839948 
L 119.773606 145.839948 
z
" clip-path="url(#p3c3f5b16a7)" style="fill: #004488"/>
   </g>
   <g id="patch_50">
    <path d="M 121.25648 169.26378 
L 122.739354 169.26378 
L 122.739354 169.26378 
L 121.25648 169.26378 
z
" clip-path="url(#p3c3f5b16a7)" style="fill: #004488"/>
   </g>
   <g id="patch_51">
    <path d="M 122.739354 169.26378 
L 124.222228 169.26378 
L 124.222228 142.498056 
L 122.739354 142.498056 
z
" clip-path="url(#p3c3f5b16a7)" style="fill: #004488"/>
   </g>
   <g id="patch_52">
    <path d="M 124.222228 169.26378 
L 125.705102 169.26378 
L 125.705102 147.24706 
L 124.222228 147.24706 
z
" clip-path="url(#p3c3f5b16a7)" style="fill: #004488"/>
   </g>
   <g id="patch_53">
    <path d="M 125.705102 169.26378 
L 127.187976 169.26378 
L 127.187976 143.6681 
L 125.705102 143.6681 
z
" clip-path="url(#p3c3f5b16a7)" style="fill: #004488"/>
   </g>
   <g id="patch_54">
    <path d="M 127.187976 169.26378 
L 128.67085 169.26378 
L 128.67085 149.41126 
L 127.187976 149.41126 
z
" clip-path="url(#p3c3f5b16a7)" style="fill: #004488"/>
   </g>
   <g id="patch_55">
    <path d="M 128.67085 169.26378 
L 130.153724 169.26378 
L 130.153724 169.26378 
L 128.67085 169.26378 
z
" clip-path="url(#p3c3f5b16a7)" style="fill: #004488"/>
   </g>
   <g id="patch_56">
    <path d="M 130.153724 169.26378 
L 131.636598 169.26378 
L 131.636598 145.847595 
L 130.153724 145.847595 
z
" clip-path="url(#p3c3f5b16a7)" style="fill: #004488"/>
   </g>
   <g id="patch_57">
    <path d="M 131.636598 169.26378 
L 133.119472 169.26378 
L 133.119472 150.474242 
L 131.636598 150.474242 
z
" clip-path="url(#p3c3f5b16a7)" style="fill: #004488"/>
   </g>
   <g id="patch_58">
    <path d="M 133.119472 169.26378 
L 134.602346 169.26378 
L 134.602346 147.820611 
L 133.119472 147.820611 
z
" clip-path="url(#p3c3f5b16a7)" style="fill: #004488"/>
   </g>
   <g id="patch_59">
    <path d="M 134.602346 169.26378 
L 136.08522 169.26378 
L 136.08522 152.301958 
L 134.602346 152.301958 
z
" clip-path="url(#p3c3f5b16a7)" style="fill: #004488"/>
   </g>
   <g id="patch_60">
    <path d="M 136.08522 169.26378 
L 137.568094 169.26378 
L 137.568094 148.761235 
L 136.08522 148.761235 
z
" clip-path="url(#p3c3f5b16a7)" style="fill: #004488"/>
   </g>
   <g id="patch_61">
    <path d="M 137.568094 169.26378 
L 139.050968 169.26378 
L 139.050968 169.26378 
L 137.568094 169.26378 
z
" clip-path="url(#p3c3f5b16a7)" style="fill: #004488"/>
   </g>
   <g id="patch_62">
    <path d="M 139.050968 169.26378 
L 140.533842 169.26378 
L 140.533842 153.059046 
L 139.050968 153.059046 
z
" clip-path="url(#p3c3f5b16a7)" style="fill: #004488"/>
   </g>
   <g id="patch_63">
    <path d="M 140.533842 169.26378 
L 142.016716 169.26378 
L 142.016716 151.024851 
L 140.533842 151.024851 
z
" clip-path="url(#p3c3f5b16a7)" style="fill: #004488"/>
   </g>
   <g id="patch_64">
    <path d="M 142.016716 169.26378 
L 143.49959 169.26378 
L 143.49959 155.207951 
L 142.016716 155.207951 
z
" clip-path="url(#p3c3f5b16a7)" style="fill: #004488"/>
   </g>
   <g id="patch_65">
    <path d="M 143.49959 169.26378 
L 144.982464 169.26378 
L 144.982464 152.921393 
L 143.49959 152.921393 
z
" clip-path="url(#p3c3f5b16a7)" style="fill: #004488"/>
   </g>
   <g id="patch_66">
    <path d="M 144.982464 169.26378 
L 146.465338 169.26378 
L 146.465338 156.615063 
L 144.982464 156.615063 
z
" clip-path="url(#p3c3f5b16a7)" style="fill: #004488"/>
   </g>
   <g id="patch_67">
    <path d="M 146.465338 169.26378 
L 147.948212 169.26378 
L 147.948212 169.26378 
L 146.465338 169.26378 
z
" clip-path="url(#p3c3f5b16a7)" style="fill: #004488"/>
   </g>
   <g id="patch_68">
    <path d="M 147.948212 169.26378 
L 149.431086 169.26378 
L 149.431086 154.51969 
L 147.948212 154.51969 
z
" clip-path="url(#p3c3f5b16a7)" style="fill: #004488"/>
   </g>
   <g id="patch_69">
    <path d="M 149.431086 169.26378 
L 150.91396 169.26378 
L 150.91396 157.440977 
L 149.431086 157.440977 
z
" clip-path="url(#p3c3f5b16a7)" style="fill: #004488"/>
   </g>
   <g id="patch_70">
    <path d="M 150.91396 169.26378 
L 152.396834 169.26378 
L 152.396834 155.827386 
L 150.91396 155.827386 
z
" clip-path="url(#p3c3f5b16a7)" style="fill: #004488"/>
   </g>
   <g id="patch_71">
    <path d="M 152.396834 169.26378 
L 153.879708 169.26378 
L 153.879708 158.947505 
L 152.396834 158.947505 
z
" clip-path="url(#p3c3f5b16a7)" style="fill: #004488"/>
   </g>
   <g id="patch_72">
    <path d="M 153.879708 169.26378 
L 155.362582 169.26378 
L 155.362582 156.638005 
L 153.879708 156.638005 
z
" clip-path="url(#p3c3f5b16a7)" style="fill: #004488"/>
   </g>
   <g id="patch_73">
    <path d="M 155.362582 169.26378 
L 156.845456 169.26378 
L 156.845456 169.26378 
L 155.362582 169.26378 
z
" clip-path="url(#p3c3f5b16a7)" style="fill: #004488"/>
   </g>
   <g id="patch_74">
    <path d="M 156.845456 169.26378 
L 158.32833 169.26378 
L 158.32833 159.33752 
L 156.845456 159.33752 
z
" clip-path="url(#p3c3f5b16a7)" style="fill: #004488"/>
   </g>
   <g id="patch_75">
    <path d="M 158.32833 169.26378 
L 159.811204 169.26378 
L 159.811204 157.341562 
L 158.32833 157.341562 
z
" clip-path="url(#p3c3f5b16a7)" style="fill: #004488"/>
   </g>
   <g id="patch_76">
    <path d="M 159.811204 169.26378 
L 161.294078 169.26378 
L 161.294078 160.591685 
L 159.811204 160.591685 
z
" clip-path="url(#p3c3f5b16a7)" style="fill: #004488"/>
   </g>
   <g id="patch_77">
    <path d="M 161.294078 169.26378 
L 162.776953 169.26378 
L 162.776953 159.19222 
L 161.294078 159.19222 
z
" clip-path="url(#p3c3f5b16a7)" style="fill: #004488"/>
   </g>
   <g id="patch_78">
    <path d="M 162.776953 169.26378 
L 164.259827 169.26378 
L 164.259827 162.052329 
L 162.776953 162.052329 
z
" clip-path="url(#p3c3f5b16a7)" style="fill: #004488"/>
   </g>
   <g id="patch_79">
    <path d="M 164.259827 169.26378 
L 165.742701 169.26378 
L 165.742701 169.26378 
L 164.259827 169.26378 
z
" clip-path="url(#p3c3f5b16a7)" style="fill: #004488"/>
   </g>
   <g id="patch_80">
    <path d="M 165.742701 169.26378 
L 167.225575 169.26378 
L 167.225575 160.897579 
L 165.742701 160.897579 
z
" clip-path="url(#p3c3f5b16a7)" style="fill: #004488"/>
   </g>
   <g id="patch_81">
    <path d="M 167.225575 169.26378 
L 168.708449 169.26378 
L 168.708449 163.566504 
L 167.225575 163.566504 
z
" clip-path="url(#p3c3f5b16a7)" style="fill: #004488"/>
   </g>
   <g id="patch_82">
    <path d="M 168.708449 169.26378 
L 170.191323 169.26378 
L 170.191323 163.11531 
L 168.708449 163.11531 
z
" clip-path="url(#p3c3f5b16a7)" style="fill: #004488"/>
   </g>
   <g id="patch_83">
    <path d="M 170.191323 169.26378 
L 171.674197 169.26378 
L 171.674197 164.392418 
L 170.191323 164.392418 
z
" clip-path="url(#p3c3f5b16a7)" style="fill: #004488"/>
   </g>
   <g id="patch_84">
    <path d="M 171.674197 169.26378 
L 173.157071 169.26378 
L 173.157071 164.369476 
L 171.674197 164.369476 
z
" clip-path="url(#p3c3f5b16a7)" style="fill: #004488"/>
   </g>
   <g id="patch_85">
    <path d="M 173.157071 169.26378 
L 174.639945 169.26378 
L 174.639945 169.26378 
L 173.157071 169.26378 
z
" clip-path="url(#p3c3f5b16a7)" style="fill: #004488"/>
   </g>
   <g id="patch_86">
    <path d="M 174.639945 169.26378 
L 176.122819 169.26378 
L 176.122819 165.776588 
L 174.639945 165.776588 
z
" clip-path="url(#p3c3f5b16a7)" style="fill: #004488"/>
   </g>
   <g id="patch_87">
    <path d="M 176.122819 169.26378 
L 177.605693 169.26378 
L 177.605693 165.210684 
L 176.122819 165.210684 
z
" clip-path="url(#p3c3f5b16a7)" style="fill: #004488"/>
   </g>
   <g id="patch_88">
    <path d="M 177.605693 169.26378 
L 179.088567 169.26378 
L 179.088567 166.288961 
L 177.605693 166.288961 
z
" clip-path="url(#p3c3f5b16a7)" style="fill: #004488"/>
   </g>
   <g id="patch_89">
    <path d="M 179.088567 169.26378 
L 180.571441 169.26378 
L 180.571441 165.960125 
L 179.088567 165.960125 
z
" clip-path="url(#p3c3f5b16a7)" style="fill: #004488"/>
   </g>
   <g id="patch_90">
    <path d="M 180.571441 169.26378 
L 182.054315 169.26378 
L 182.054315 167.344295 
L 180.571441 167.344295 
z
" clip-path="url(#p3c3f5b16a7)" style="fill: #004488"/>
   </g>
   <g id="patch_91">
    <path d="M 182.054315 169.26378 
L 183.537189 169.26378 
L 183.537189 169.26378 
L 182.054315 169.26378 
z
" clip-path="url(#p3c3f5b16a7)" style="fill: #004488"/>
   </g>
   <g id="patch_92">
    <path d="M 183.537189 169.26378 
L 185.020063 169.26378 
L 185.020063 168.032556 
L 183.537189 168.032556 
z
" clip-path="url(#p3c3f5b16a7)" style="fill: #004488"/>
   </g>
   <g id="patch_93">
    <path d="M 185.020063 169.26378 
L 186.502937 169.26378 
L 186.502937 168.850823 
L 185.020063 168.850823 
z
" clip-path="url(#p3c3f5b16a7)" style="fill: #004488"/>
   </g>
   <g id="patch_94">
    <path d="M 186.502937 169.26378 
L 187.985811 169.26378 
L 187.985811 168.85847 
L 186.502937 168.85847 
z
" clip-path="url(#p3c3f5b16a7)" style="fill: #004488"/>
   </g>
   <g id="patch_95">
    <path d="M 187.985811 169.26378 
L 189.468685 169.26378 
L 189.468685 169.240837 
L 187.985811 169.240837 
z
" clip-path="url(#p3c3f5b16a7)" style="fill: #004488"/>
   </g>
   <g id="patch_96">
    <path d="M 189.468685 169.26378 
L 190.951559 169.26378 
L 190.951559 169.240837 
L 189.468685 169.240837 
z
" clip-path="url(#p3c3f5b16a7)" style="fill: #004488"/>
   </g>
   <g id="patch_97">
    <path d="M 190.951559 169.26378 
L 192.434433 169.26378 
L 192.434433 169.26378 
L 190.951559 169.26378 
z
" clip-path="url(#p3c3f5b16a7)" style="fill: #004488"/>
   </g>
   <g id="patch_98">
    <path d="M 192.434433 169.26378 
L 193.917307 169.26378 
L 193.917307 169.23319 
L 192.434433 169.23319 
z
" clip-path="url(#p3c3f5b16a7)" style="fill: #004488"/>
   </g>
   <g id="patch_99">
    <path d="M 193.917307 169.26378 
L 195.400181 169.26378 
L 195.400181 169.194953 
L 193.917307 169.194953 
z
" clip-path="url(#p3c3f5b16a7)" style="fill: #004488"/>
   </g>
   <g id="patch_100">
    <path d="M 195.400181 169.26378 
L 196.883055 169.26378 
L 196.883055 169.072596 
L 195.400181 169.072596 
z
" clip-path="url(#p3c3f5b16a7)" style="fill: #004488"/>
   </g>
   <g id="patch_101">
    <path d="M 196.883055 169.26378 
L 198.365929 169.26378 
L 198.365929 169.149069 
L 196.883055 169.149069 
z
" clip-path="url(#p3c3f5b16a7)" style="fill: #004488"/>
   </g>
   <g id="patch_102">
    <path d="M 198.365929 169.26378 
L 199.848803 169.26378 
L 199.848803 169.256132 
L 198.365929 169.256132 
z
" clip-path="url(#p3c3f5b16a7)" style="fill: #004488"/>
   </g>
   <g id="matplotlib.axis_1">
    <g id="xtick_1">
     <g id="line2d_1">
      <defs>
       <path id="m86857c4216" d="M 0 0 
L 0 3.5 
" style="stroke: #000000; stroke-width: 0.8"/>
      </defs>
      <g>
       <use xlink:href="#m86857c4216" x="51.561401" y="169.26378" style="stroke: #000000; stroke-width: 0.8"/>
      </g>
     </g>
     <g id="text_1">
      <text style="font: 7px 'Arial'; text-anchor: middle" x="51.561401" y="181.274248" transform="rotate(-0 51.561401 181.274248)">0</text>
     </g>
    </g>
    <g id="xtick_2">
     <g id="line2d_2">
      <g>
       <use xlink:href="#m86857c4216" x="87.293305" y="169.26378" style="stroke: #000000; stroke-width: 0.8"/>
      </g>
     </g>
     <g id="text_2">
      <text style="font: 7px 'Arial'; text-anchor: middle" x="87.293305" y="181.274248" transform="rotate(-0 87.293305 181.274248)">20</text>
     </g>
    </g>
    <g id="xtick_3">
     <g id="line2d_3">
      <g>
       <use xlink:href="#m86857c4216" x="123.025209" y="169.26378" style="stroke: #000000; stroke-width: 0.8"/>
      </g>
     </g>
     <g id="text_3">
      <text style="font: 7px 'Arial'; text-anchor: middle" x="123.025209" y="181.274248" transform="rotate(-0 123.025209 181.274248)">40</text>
     </g>
    </g>
    <g id="xtick_4">
     <g id="line2d_4">
      <g>
       <use xlink:href="#m86857c4216" x="158.757113" y="169.26378" style="stroke: #000000; stroke-width: 0.8"/>
      </g>
     </g>
     <g id="text_4">
      <text style="font: 7px 'Arial'; text-anchor: middle" x="158.757113" y="181.274248" transform="rotate(-0 158.757113 181.274248)">60</text>
     </g>
    </g>
    <g id="xtick_5">
     <g id="line2d_5">
      <g>
       <use xlink:href="#m86857c4216" x="194.489017" y="169.26378" style="stroke: #000000; stroke-width: 0.8"/>
      </g>
     </g>
     <g id="text_5">
      <text style="font: 7px 'Arial'; text-anchor: middle" x="194.489017" y="181.274248" transform="rotate(-0 194.489017 181.274248)">80</text>
     </g>
    </g>
    <g id="text_6">
     <!-- Speed ($km/h$) -->
     <g transform="translate(103.445102 191.985498)">
      <text>
       <tspan style="font: 7px 'Arial'" x="0 4.668945 8.562012 12.455078 16.348145 20.241211 22.186035 42.18457" y="-0.6875">Speed ()</tspan>
       <tspan style="font: oblique 7px 'DejaVu Sans'" x="24.51709 28.570801 37.748047" y="-0.6875">kmh</tspan>
       <tspan style="font: 7px 'DejaVu Sans'" x="35.389648" y="-0.6875">/</tspan>
      </text>
     </g>
    </g>
   </g>
   <g id="matplotlib.axis_2">
    <g id="ytick_1">
     <g id="line2d_6">
      <defs>
       <path id="mb5370fcac0" d="M 0 0 
L -3.5 0 
" style="stroke: #000000; stroke-width: 0.8"/>
      </defs>
      <g>
       <use xlink:href="#mb5370fcac0" x="44.147031" y="169.26378" style="stroke: #000000; stroke-width: 0.8"/>
      </g>
     </g>
     <g id="text_7">
      <text style="font: 7px 'Arial'; text-anchor: end" x="37.147031" y="171.769014" transform="rotate(-0 37.147031 171.769014)">0</text>
     </g>
    </g>
    <g id="ytick_2">
     <g id="line2d_7">
      <g>
       <use xlink:href="#mb5370fcac0" x="44.147031" y="150.145406" style="stroke: #000000; stroke-width: 0.8"/>
      </g>
     </g>
     <g id="text_8">
      <text style="font: 7px 'Arial'; text-anchor: end" x="37.147031" y="152.65064" transform="rotate(-0 37.147031 152.65064)">2500</text>
     </g>
    </g>
    <g id="ytick_3">
     <g id="line2d_8">
      <g>
       <use xlink:href="#mb5370fcac0" x="44.147031" y="131.027032" style="stroke: #000000; stroke-width: 0.8"/>
      </g>
     </g>
     <g id="text_9">
      <text style="font: 7px 'Arial'; text-anchor: end" x="37.147031" y="133.532266" transform="rotate(-0 37.147031 133.532266)">5000</text>
     </g>
    </g>
    <g id="ytick_4">
     <g id="line2d_9">
      <g>
       <use xlink:href="#mb5370fcac0" x="44.147031" y="111.908658" style="stroke: #000000; stroke-width: 0.8"/>
      </g>
     </g>
     <g id="text_10">
      <text style="font: 7px 'Arial'; text-anchor: end" x="37.147031" y="114.413892" transform="rotate(-0 37.147031 114.413892)">7500</text>
     </g>
    </g>
    <g id="ytick_5">
     <g id="line2d_10">
      <g>
       <use xlink:href="#mb5370fcac0" x="44.147031" y="92.790284" style="stroke: #000000; stroke-width: 0.8"/>
      </g>
     </g>
     <g id="text_11">
      <text style="font: 7px 'Arial'; text-anchor: end" x="37.147031" y="95.295518" transform="rotate(-0 37.147031 95.295518)">10000</text>
     </g>
    </g>
    <g id="ytick_6">
     <g id="line2d_11">
      <g>
       <use xlink:href="#mb5370fcac0" x="44.147031" y="73.67191" style="stroke: #000000; stroke-width: 0.8"/>
      </g>
     </g>
     <g id="text_12">
      <text style="font: 7px 'Arial'; text-anchor: end" x="37.147031" y="76.177144" transform="rotate(-0 37.147031 76.177144)">12500</text>
     </g>
    </g>
    <g id="ytick_7">
     <g id="line2d_12">
      <g>
       <use xlink:href="#mb5370fcac0" x="44.147031" y="54.553536" style="stroke: #000000; stroke-width: 0.8"/>
      </g>
     </g>
     <g id="text_13">
      <text style="font: 7px 'Arial'; text-anchor: end" x="37.147031" y="57.05877" transform="rotate(-0 37.147031 57.05877)">15000</text>
     </g>
    </g>
    <g id="ytick_8">
     <g id="line2d_13">
      <g>
       <use xlink:href="#mb5370fcac0" x="44.147031" y="35.435162" style="stroke: #000000; stroke-width: 0.8"/>
      </g>
     </g>
     <g id="text_14">
      <text style="font: 7px 'Arial'; text-anchor: end" x="37.147031" y="37.940396" transform="rotate(-0 37.147031 37.940396)">17500</text>
     </g>
    </g>
    <g id="ytick_9">
     <g id="line2d_14">
      <g>
       <use xlink:href="#mb5370fcac0" x="44.147031" y="16.316788" style="stroke: #000000; stroke-width: 0.8"/>
      </g>
     </g>
     <g id="text_15">
      <text style="font: 7px 'Arial'; text-anchor: end" x="37.147031" y="18.822022" transform="rotate(-0 37.147031 18.822022)">20000</text>
     </g>
    </g>
    <g id="text_16">
     <text style="font: 7px 'Arial'; text-anchor: middle" x="12.210469" y="88.23189" transform="rotate(-90 12.210469 88.23189)">Frequency</text>
    </g>
   </g>
   <g id="patch_103">
    <path d="M 44.147031 169.26378 
L 44.147031 7.2 
" style="fill: none; stroke: #000000; stroke-width: 0.8; stroke-linejoin: miter; stroke-linecap: square"/>
   </g>
   <g id="patch_104">
    <path d="M 207.263173 169.26378 
L 207.263173 7.2 
" style="fill: none; stroke: #000000; stroke-width: 0.8; stroke-linejoin: miter; stroke-linecap: square"/>
   </g>
   <g id="patch_105">
    <path d="M 44.147031 169.26378 
L 207.263173 169.26378 
" style="fill: none; stroke: #000000; stroke-width: 0.8; stroke-linejoin: miter; stroke-linecap: square"/>
   </g>
   <g id="patch_106">
    <path d="M 44.147031 7.2 
L 207.263173 7.2 
" style="fill: none; stroke: #000000; stroke-width: 0.8; stroke-linejoin: miter; stroke-linecap: square"/>
   </g>
  </g>
 </g>
 <defs>
  <clipPath id="p3c3f5b16a7">
   <rect x="44.147031" y="7.2" width="163.116142" height="162.06378"/>
  </clipPath>
 </defs>
</svg>
